<svg xmlns="http://www.w3.org/2000/svg" viewBox="0 0 64 64">
  <defs>
    <linearGradient id="bg" x1="0" y1="0" x2="1" y2="1">
      <stop offset="0%" stop-color="#e0e7ff"/>
      <stop offset="100%" stop-color="#bfdbfe"/>
    </linearGradient>
    <linearGradient id="car" x1="0" y1="0" x2="1" y2="1">
      <stop offset="0%" stop-color="#06b6d4"/>
      <stop offset="100%" stop-color="#0ea5e9"/>
    </linearGradient>
    <linearGradient id="pump" x1="0" y1="0" x2="1" y2="1">
      <stop offset="0%" stop-color="#f59e0b"/>
      <stop offset="100%" stop-color="#f97316"/>
    </linearGradient>
  </defs>
  <rect x="2" y="2" width="60" height="60" rx="14" fill="url(#bg)"/>

  <!-- Pump -->
  <rect x="9" y="11" width="16" height="31" rx="3" fill="url(#pump)"/>
  <rect x="12" y="15" width="10" height="8" rx="2" fill="#ffffff"/>
  <path d="M25 20c4 0 5 2 5 5v8c0 2 1 3 3 3h2" fill="none" stroke="#f97316" stroke-width="2.2" stroke-linecap="round"/>

  <!-- Car -->
  <path d="M30 39h13c2.4 0 4.4 1.3 5.3 3.5l1.2 3.2c.3.8-.3 1.8-1.2 1.8H25.5c-.9 0-1.5-1-1.2-1.8l1.2-3.2c.9-2.2 2.9-3.5 5.5-3.5z" fill="url(#car)"/>
  <path d="M33 36h9c1.1 0 2 .9 2 2v1H31v-1c0-1.1.9-2 2-2z" fill="#cffafe"/>
  <circle cx="30" cy="48" r="3.2" fill="#0f172a"/>
  <circle cx="44" cy="48" r="3.2" fill="#0f172a"/>
</svg>
